<?xml version="1.0" encoding="UTF-8" standalone="no"?>
<svg width="22px" height="18px" viewBox="0 0 22 18" version="1.1" xmlns="http://www.w3.org/2000/svg" xmlns:xlink="http://www.w3.org/1999/xlink">
    <!-- Generator: Sketch 3.8.3 (29802) - http://www.bohemiancoding.com/sketch -->
    <title>1467140565_03-twitter</title>
    <desc>Created with Sketch.</desc>
    <defs></defs>
    <g id="Page-1" stroke="none" stroke-width="1" fill="none" fill-rule="evenodd">
        <g id="Help-Center-Home" transform="translate(-1043.000000, -2418.000000)" fill="#AAB2BD">
            <g id="1467140565_03-twitter" transform="translate(1043.000000, 2418.000000)">
                <g id="Layer_1">
                    <path d="M19.331122,2.92214634 C20.2478049,2.37336585 20.9506829,1.50409756 21.2821463,0.467121951 C20.4247317,0.97595122 19.475561,1.34517073 18.4644878,1.5444878 C17.6553659,0.682243902 16.5020488,0.143121951 15.2258049,0.143121951 C12.7756098,0.143121951 10.7890244,2.12970732 10.7890244,4.58034146 C10.7890244,4.92760976 10.8280976,5.26609756 10.9040488,5.59141463 C7.2162439,5.40614634 3.94639024,3.63995122 1.75785366,0.955317073 C1.37590244,1.61034146 1.15726829,2.3724878 1.15726829,3.18643902 C1.15726829,4.72565854 1.9404878,6.084 3.13112195,6.8795122 C2.40409756,6.8562439 1.71965854,6.6564878 1.12126829,6.32414634 C1.12082927,6.34258537 1.12082927,6.36146341 1.12082927,6.38034146 C1.12082927,8.52980488 2.65039024,10.3227805 4.68043902,10.7310732 C4.30814634,10.8320488 3.91609756,10.8864878 3.51131707,10.8864878 C3.22507317,10.8864878 2.94717073,10.8588293 2.67629268,10.8065854 C3.24131707,12.5692683 4.8797561,13.8525366 6.82112195,13.8880976 C5.30253659,15.0782927 3.38970732,15.7877561 1.3104878,15.7877561 C0.952682927,15.7877561 0.599268293,15.7666829 0.252,15.7254146 C2.21619512,16.9849756 4.54829268,17.7190244 7.05380488,17.7190244 C15.2157073,17.7190244 19.6783902,10.9580488 19.6783902,5.09443902 C19.6783902,4.90214634 19.674439,4.71029268 19.6660976,4.5197561 C20.5327317,3.89546341 21.2852195,3.11356098 21.8796585,2.22365854 C21.0845854,2.57707317 20.2289268,2.81546341 19.331122,2.92214634 Z" id="Shape"></path>
                </g>
            </g>
        </g>
    </g>
</svg>