<?xml version="1.0" encoding="UTF-8" standalone="no"?>
<svg width="20px" height="21px" viewBox="0 0 20 21" version="1.1" xmlns="http://www.w3.org/2000/svg" xmlns:xlink="http://www.w3.org/1999/xlink">
    <!-- Generator: Sketch 3.8.3 (29802) - http://www.bohemiancoding.com/sketch -->
    <title>rect2995</title>
    <desc>Created with Sketch.</desc>
    <defs></defs>
    <g id="Page-1" stroke="none" stroke-width="1" fill="none" fill-rule="evenodd">
        <g id="Help-Center-Home" transform="translate(-1017.000000, -2418.000000)" fill="#AAB2BD">
            <g id="1467140912_facebook2" transform="translate(1017.000000, 2418.000000)">
                <g id="svg2">
                    <g id="layer1" transform="translate(0.000000, 0.025513)">
                        <path d="M2,0.0144872 C0.892,0.0144872 -4.0074552e-18,0.9064872 0,2.0144872 L0,18.0144872 C0,19.1224872 0.892,20.0144872 2,20.0144872 L9.0075,20.0144872 L9.0075,11.0557372 L7.23625,11.0557372 L7.23625,7.8882372 L9.0075,7.8882372 L9.0075,5.8394872 C9.0075,4.37243 9.7049124,2.0807372 12.7675,2.0807372 L15.52625,2.0907372 L15.52625,5.1644872 L13.5225,5.1644872 C13.1961168,5.1644872 12.7325,5.3278052 12.7325,6.0269872 L12.7325,7.8882372 L15.57125,7.8882372 L15.24625,11.0557372 L12.7325,11.0557372 L12.7325,20.0144872 L18,20.0144872 C19.108,20.0144872 20,19.1224872 20,18.0144872 L20,2.0144872 C20,0.9064872 19.108,0.0144872 18,0.0144872 L2,0.0144872 L2,0.0144872 Z" id="rect2995"></path>
                    </g>
                </g>
            </g>
        </g>
    </g>
</svg>