<?xml version="1.0" encoding="UTF-8" standalone="no"?>
<svg width="20px" height="21px" viewBox="0 0 20 21" version="1.1" xmlns="http://www.w3.org/2000/svg" xmlns:xlink="http://www.w3.org/1999/xlink">
    <!-- Generator: Sketch 3.8.3 (29802) - http://www.bohemiancoding.com/sketch -->
    <title>ig</title>
    <desc>Created with Sketch.</desc>
    <defs></defs>
    <g id="Page-1" stroke="none" stroke-width="1" fill="none" fill-rule="evenodd">
        <g id="Help-Center-Home" transform="translate(-995.000000, -2418.000000)" fill="#AAB2BD">
            <g id="ig" transform="translate(995.000000, 2418.000000)">
                <g id="Layer_1">
                    <g id="Group">
                        <path d="M10.08,5.08 C7.28,5.08 4.96,7.36 4.96,10.2 C4.96,13.04 7.24,15.32 10.08,15.32 C12.92,15.32 15.2,13 15.2,10.2 C15.2,7.4 12.88,5.08 10.08,5.08 L10.08,5.08 Z M10.08,13.48 C8.28,13.48 6.8,12 6.8,10.2 C6.8,8.4 8.28,6.92 10.08,6.92 C11.88,6.92 13.36,8.4 13.36,10.2 C13.36,12 11.88,13.48 10.08,13.48 L10.08,13.48 Z" id="Shape"></path>
                        <ellipse id="Oval" cx="15.4" cy="4.96" rx="1.16" ry="1.16"></ellipse>
                        <path d="M18.4,1.96 C17.36,0.88 15.88,0.32 14.2,0.32 L5.96,0.32 C2.48,0.32 0.16,2.64 0.16,6.12 L0.16,14.32 C0.16,16.04 0.72,17.52 1.84,18.6 C2.92,19.64 4.36,20.16 6,20.16 L14.16,20.16 C15.88,20.16 17.32,19.6 18.36,18.6 C19.44,17.56 20,16.08 20,14.36 L20,6.12 C20,4.44 19.44,3 18.4,1.96 L18.4,1.96 Z M18.16,14.36 C18.16,15.6 17.8,16.6 17.08,17.28 C16.36,17.96 15.36,18.32 14.16,18.32 L6,18.32 C4.8,18.32 3.8,17.96 3.08,17.28 C2.36,16.56 2,15.56 2,14.32 L2,6.12 C2,4.92 2.36,3.92 3.08,3.2 C3.76,2.52 4.8,2.16 6,2.16 L14.24,2.16 C15.44,2.16 16.44,2.52 17.16,3.24 C17.84,3.96 18.24,4.96 18.24,6.12 L18.24,14.36 L18.16,14.36 Z" id="Shape"></path>
                    </g>
                </g>
            </g>
        </g>
    </g>
</svg>